<?xml version="1.0" encoding="utf-8"?>
<!-- Generator: Adobe Illustrator 22.0.1, SVG Export Plug-In . SVG Version: 6.00 Build 0)  -->
<svg version="1.1" id="Layer_1" xmlns="http://www.w3.org/2000/svg" xmlns:xlink="http://www.w3.org/1999/xlink" x="0px" y="0px"
	 viewBox="0 0 331 329" style="enable-background:new 0 0 331 329;" xml:space="preserve">
<style type="text/css">
	.st0{fill:#9E362E;}
</style>
<path id="Color_Fill_1" class="st0" d="M3.6,327.3v-5l1-1c22.8-0.5,58.6-10.4,74-20c8.9-5.6,24.4-21.6,35-23
	c10.5,9.7,27.3,13.6,42,19c30,11.1,66.1,17.5,104,21c14,0.3,28,0.7,42,1c4.6,0,13.7,1.2,14,1c1-1,3.4-2.7,4-5c1.3-5,0.1-12.7,0-21
	c-0.2-14.1,0-30.1,0-38c0-6.4-0.8-15.8-1-20s-0.9-7.7-3-15c1.2-0.2-3-16.7-4-25c-4.7-16.2-9.5-34.1-16-50
	c-1.9-4.6-10.6-22.8-10.3-22.9c0.3-0.2-6.5-14.6-6.7-16.1c20.1-13.5,31-50.4,41-75v-29h2c8.3-3.8,8,8.7,8,17v224c0,15.5,0,34.5,0,52
	c0,11.4,0.8,21.8-1,31H3.6z M317.6,312.3h-3c-0.1,1.4-0.5,2.7-1,4c-1.8-0.6-1-0.2-2-1c-1.9-0.7-2.6-2.7-4-4c-3.4-3.1-6.5-6.3-10-9
	c-8.3-6.3-15.7-13.9-24-20c-21.7-16-47.1-25.5-73-38c0.3-19.1-4.6-34.1-12-46c-4.3-6.9-14.1-12.5-15-22c0.7-0.8,1.3-2.2,2-3
	c1.1-0.8,0.9-0.6,3-1c10.8,11.1,27.2,19.2,43,25c7.6,2.8,20.8,2.2,27,7l6,20c5.7,13.3,12.7,26.1,21,38c2.3,3.4,4.6,6.7,7,10
	c2.2,3,7,9,7,9l7,8c0,0,10.1,10.5,16,16c0.6,0.5,1.2,0.9,2,1c1,0.2,2.7,0.5,3,1V312.3z"/>
</svg>
