<?xml version="1.0" encoding="utf-8"?>
<!-- Generator: Adobe Illustrator 22.0.1, SVG Export Plug-In . SVG Version: 6.00 Build 0)  -->
<svg version="1.1" id="Layer_1" xmlns="http://www.w3.org/2000/svg" xmlns:xlink="http://www.w3.org/1999/xlink" x="0px" y="0px"
	 viewBox="0 0 331 329" style="enable-background:new 0 0 331 329;" xml:space="preserve">
<style type="text/css">
	.st0{fill:#9E362E;}
</style>
<path id="Color_Fill_1" class="st0" d="M4.3,1.8h5l1,1c0.5,22.8,10.4,58.6,20,74c5.6,8.9,21.6,24.4,23,35c-9.7,10.5-13.6,27.3-19,42
	c-11.1,30-17.5,66.1-21,104c-0.3,14-0.7,28-1,42c0,4.6-1.2,13.7-1,14c1,1,2.7,3.4,5,4c5,1.3,12.7,0.1,21,0c14.1-0.2,30.1,0,38,0
	c6.4,0,15.8-0.8,20-1s7.7-0.9,15-3c0.2,1.2,16.7-3,25-4c16.2-4.7,34.1-9.5,50-16c4.6-1.9,22.8-10.6,22.9-10.3
	c0.2,0.3,14.6-6.5,16.1-6.7c13.5,20.1,50.4,31,75,41h29v2c3.8,8.3-8.7,8-17,8h-224c-15.5,0-34.5,0-52,0c-11.4,0-21.8,0.8-31-1V1.8z
	 M19.3,315.8v-3c-1.4-0.1-2.7-0.5-4-1c0.6-1.8,0.2-1,1-2c0.7-1.9,2.7-2.6,4-4c3.1-3.4,6.3-6.5,9-10c6.3-8.3,13.9-15.7,20-24
	c16-21.7,25.5-47.1,38-73c19.1,0.3,34.1-4.6,46-12c6.9-4.3,12.5-14.1,22-15c0.8,0.7,2.2,1.3,3,2c0.8,1.1,0.6,0.9,1,3
	c-11.1,10.8-19.2,27.2-25,43c-2.8,7.6-2.2,20.8-7,27l-20,6c-13.3,5.7-26.1,12.7-38,21c-3.4,2.3-6.7,4.6-10,7c-3,2.2-9,7-9,7l-8,7
	c0,0-10.5,10.1-16,16c-0.5,0.6-0.9,1.2-1,2c-0.2,1-0.5,2.7-1,3H19.3z"/>
</svg>
