<svg xmlns="http://www.w3.org/2000/svg" width="537.949" height="537.948" viewBox="55.691 52.668 537.949 537.948"><path fill="#FFF" d="M572.832 189.756L470.628 292.572c-9.18 9.18-24.479 9.18-34.271 0l-31.824-31.824-1.225-1.224 119.341-119.34c4.896-4.896 4.896-12.24 0-17.136-4.896-4.896-12.24-4.896-17.137 0L385.56 241.776l-31.212-31.212c-9.18-9.18-9.18-24.48 0-34.272L457.164 73.476c4.896-4.896 4.896-12.24 0-17.136-4.896-4.896-12.24-4.896-17.136 0L337.212 159.156c-18.972 18.972-18.972 49.572 0 68.544l23.256 23.256L59.364 551.448c-4.896 4.896-4.896 12.239 0 17.136l18.36 18.36c2.448 2.447 5.508 3.672 8.568 3.672s6.12-1.225 8.568-3.672l300.492-300.492 23.257 23.256c9.18 9.18 22.031 14.076 34.271 14.076s25.092-4.896 34.272-14.076l102.815-102.816c4.896-4.896 4.896-12.24 0-17.136-4.283-4.896-12.238-4.896-17.135 0z"/></svg>