<svg xmlns="http://www.w3.org/2000/svg" width="569.492" height="301.308" viewBox="21.104 168.948 569.492 301.308"><g fill="#FFF"><path d="M100.368 423.948c0-12.036 3.672-23.46 9.792-32.844H61.404c-13.464 0-24.276 10.812-24.276 24.276s10.812 24.276 24.276 24.276h41.004c-1.224-4.896-2.04-10.2-2.04-15.708zM574.26 392.328l-102.611-191.76c-4.488-8.364-12.24-14.28-21.421-16.524-9.18-2.244-18.972-.408-26.724 5.1l-45.9 32.028V185.88c0-9.384-7.548-16.932-16.932-16.932s-16.932 7.548-16.932 16.932v44.88l-195.228 21.42c0-2.652 0-5.304-.408-7.956-1.02-8.364-8.772-14.484-17.136-13.464L34.68 242.592c-8.364 1.02-14.484 8.772-13.464 17.136 4.08 32.436 33.66 55.692 66.096 51.612l9.18-1.224c16.32-2.04 30.396-10.608 39.78-22.848l172.788-18.972-138.516 96.288c13.056 2.244 24.684 8.772 33.456 17.952l139.74-97.308v105.264H210.324c6.12 9.384 9.792 20.604 9.792 32.844 0 5.508-.816 10.812-2.244 15.912h193.596c-1.428-5.1-2.244-10.404-2.244-15.912 0-12.036 3.673-23.46 9.792-32.844h-41.819V261.564l64.668-44.88 93.023 173.808h-15.912c6.12 9.384 9.792 20.604 9.792 32.844 0 5.508-.815 10.812-2.243 15.912h39.779a24.204 24.204 0 0 0 24.276-24.276c.408-10.404-6.732-19.38-16.32-22.644z"/></g><circle fill="#FFF" cx="160.14" cy="423.948" r="46.308"/><circle fill="#FFF" cx="469.2" cy="423.948" r="46.308"/></svg>