<svg xmlns="http://www.w3.org/2000/svg" width="368.411" height="368.416" viewBox="125.687 139.192 368.411 368.416"><path fill="#FFF" d="M486.313 462.212c-5.716-5.716-13.372-8.164-20.845-7.595l-53.831-51.377 36.598-45.355-33.905-33.905c2.222 14.375-4.981 30.686-13.256 44.015L200.552 160.423s-42.925-7.925-74.866-21.23c13.311 31.94 21.23 74.866 21.23 74.866l207.566 200.528c-13.323 8.273-29.633 15.471-44.009 13.256l33.905 33.904 45.354-36.598 51.378 53.832c-.575 7.472 1.879 15.128 7.595 20.838 10.386 10.386 27.222 10.386 37.602 0 10.38-10.385 10.392-27.227.006-37.607z"/></svg>