<svg xmlns="http://www.w3.org/2000/svg" width="435.561" height="475.708" viewBox="87.944 98.323 435.561 475.708"><path fill="#FFF" d="M452.146 410.382a116.286 116.286 0 0 0 62.914-15.116c-25.093 93.514-75.582 95.228-144.004 97.614-51.347 1.774-108.508 3.732-166.158 45.104a207.657 207.657 0 0 1-83.477 34.884l-6.12 1.163C158.508 492.88 244.8 460.26 328.338 428.926c18.666-7.038 36.292-13.709 53.55-20.869l22.95.918c15.423.672 31.395 1.407 47.308 1.407z"/><path fill="#FFF" d="M523.505 235.35c-5.019 69.707-51.347 120.87-144.677 160.222h-.551c-17.442 7.344-35.374 14.076-54.407 21.236-79.56 29.988-169.462 63.832-216.097 144.371-1.53-3.794-2.938-7.772-4.284-11.506a63.398 63.398 0 0 1 0-41.738c28.703-82.804 105.264-129.132 186.048-177.969 30.232-18.36 61.2-37.209 90.943-58.507 50.796-4.224 103-8.936 143.025-36.109z"/><path fill="#FFF" d="M374.605 260.136c-29.499 21.42-61.2 40.454-91.8 58.936-82.13 49.816-160.405 97.125-190.699 183.049a315.238 315.238 0 0 1-4.162-45.166c0-155.57 128.153-209.977 252.021-262.548 65.974-27.907 129.071-54.774 166.403-96.084-29.865 79.621-84.884 127.847-131.763 161.813z"/></svg>