<svg xmlns="http://www.w3.org/2000/svg" width="581.659" height="552.3" viewBox="15.042 43.211 581.659 552.3"><path fill="#FFF" d="M591.192 304.812l-80.784-35.496c-6.12-2.448-12.24 1.836-12.24 7.956v20.808H200.124L302.94 107.748c49.572 44.064 81.396 103.428 91.188 168.912h42.84c-12.24-93.636-64.26-177.48-143.82-230.112-9.792-6.12-22.644-3.672-28.764 6.12-6.732 9.792-3.672 22.644 6.12 29.376 3.672 2.448 6.732 4.896 9.792 7.344L166.464 298.08h-58.14L94.86 276.048c-1.224-1.836-3.06-2.448-4.896-2.448H20.808c-4.284 0-7.344 4.896-4.896 8.568l17.136 27.54a5.559 5.559 0 0 1 0 6.12l-17.136 27.54c-2.448 3.672.612 8.568 4.896 8.568h69.156c1.836 0 3.672-1.224 4.896-2.448l13.464-22.032h58.14L284.58 545.94c-4.896 3.672-9.792 7.956-15.3 11.016-9.792 6.731-12.24 19.584-6.12 29.376 4.284 6.12 10.404 9.18 17.136 9.18 4.284 0 7.956-1.224 11.628-3.672C375.768 536.76 428.4 446.796 437.58 348.264h-42.229c-6.731 68.543-38.556 130.968-88.128 178.092l-107.1-198.9h298.044v20.808c0 6.12 6.732 10.404 12.24 7.956l80.784-35.496c7.345-3.06 7.345-12.852.001-15.912z"/></svg>