<svg xmlns="http://www.w3.org/2000/svg" width="331" height="329" viewBox="0 0 331 329">
  <metadata><?xpacket begin="﻿" id="W5M0MpCehiHzreSzNTczkc9d"?>
<x:xmpmeta xmlns:x="adobe:ns:meta/" x:xmptk="Adobe XMP Core 5.6-c140 79.160451, 2017/05/06-01:08:21        ">
   <rdf:RDF xmlns:rdf="http://www.w3.org/1999/02/22-rdf-syntax-ns#">
      <rdf:Description rdf:about=""/>
   </rdf:RDF>
</x:xmpmeta>
                                                                                                    
                                                                                                    
                                                                                                    
                                                                                                    
                                                                                                    
                                                                                                    
                                                                                                    
                                                                                                    
                                                                                                    
                                                                                                    
                                                                                                    
                                                                                                    
                                                                                                    
                                                                                                    
                                                                                                    
                                                                                                    
                                                                                                    
                                                                                                    
                                                                                                    
                                                                                                    
                           
<?xpacket end="w"?></metadata>
<defs>
    <style>
      .cls-1 {
        fill: #9e362e;
        fill-rule: evenodd;
      }
    </style>
  </defs>
  <path id="Color_Fill_1" data-name="Color Fill 1" class="cls-1" d="M329,328h-5l-1-1c-0.548-22.849-10.416-58.6-20-74-5.564-8.938-21.58-24.408-23-35,9.711-10.529,13.564-27.329,19-42,11.108-29.98,17.494-66.055,21-104q0.5-21,1-42c0-4.593,1.248-13.657,1-14-0.992-1-2.652-3.379-5-4-5.015-1.328-12.7-.092-21,0-14.117.157-30.055,0-38,0-6.384,0-15.792.844-20,1s-7.74.913-15,3c-0.156-1.247-16.668,3-25,4-16.2,4.678-34.13,9.47-50,16-4.616,1.9-22.752,10.6-22.908,10.287S110.486,52.807,109,53C95.462,32.929,58.6,22.013,34,12H5V10C1.19,1.688,13.7,2.005,22,2H246c15.46,0,34.55.018,52,0,11.392-.012,21.822-0.794,31,1V328ZM314,14v3a12.667,12.667,0,0,1,4,1c-0.631,1.754-.193.971-1,2-0.654,1.9-2.74,2.623-4,4-3.069,3.355-6.324,6.469-9,10-6.323,8.344-13.919,15.738-20,24-15.989,21.724-25.488,47.074-38,73-19.11-.278-34.054,4.6-46,12-6.946,4.3-12.493,14.055-22,15-0.771-.682-2.232-1.311-3-2-0.752-1.073-.6-0.946-1-3,11.054-10.838,19.161-27.189,25-43,2.818-7.63,2.2-20.8,7-27l20-6a216.059,216.059,0,0,0,38-21c3.39-2.348,6.721-4.644,10-7,3.038-2.182,9-7,9-7l8-7s10.516-10.131,16-16a3.789,3.789,0,0,0,1-2c0.248-1.011.5-2.668,1-3h5Z"/>
</svg>
