<svg xmlns="http://www.w3.org/2000/svg" width="459" height="515.425" viewBox="76.5 62.548 459 515.425"><path fill="#FFF" d="M470.431 486.386c28.113-45.396 65.069-127.5 65.069-180.791 0-138.556-98.663-243.047-229.5-243.047S76.5 167.039 76.5 305.595c0 53.292 36.955 135.395 65.07 180.791l-4.47 4.482a50.523 50.523 0 0 0-14.705 36.034c.026 28.11 22.835 50.877 50.945 50.851a50.9 50.9 0 0 0 35.852-14.817l36.283-36.282c19.747-20.096 14.007-51.398-1.992-72.689a11.66 11.66 0 0 0-1.42-2.067c-25.45-30.331-63.202-104.714-63.202-145.305 0-80.982 54.661-142.043 127.139-142.043 72.479 0 127.139 61.061 127.139 142.043 0 40.591-37.752 114.974-63.202 145.305a10.837 10.837 0 0 0-1.319 1.942c-16.074 21.316-21.877 52.693-2.018 72.889l36.211 36.21c19.722 19.912 51.852 20.066 71.763.344a50.744 50.744 0 0 0 15.034-36.377 50.523 50.523 0 0 0-14.705-36.034l-4.472-4.486z"/></svg>