<?xml version="1.0" encoding="utf-8"?>
<!-- Generator: Adobe Illustrator 22.0.1, SVG Export Plug-In . SVG Version: 6.00 Build 0)  -->
<svg version="1.1" id="Layer_1" xmlns="http://www.w3.org/2000/svg" xmlns:xlink="http://www.w3.org/1999/xlink" x="0px" y="0px"
	 viewBox="0 0 21.4 85.7" style="enable-background:new 0 0 21.4 85.7;" xml:space="preserve">
<style type="text/css">
	.st0{fill:#DB1A21;}
	.st1{fill:#8DC63F;}
	.st2{fill:#CBDB2A;}
	.st3{fill:#EBD417;}
	.st4{fill:#FFC20E;}
	.st5{fill:none;}
</style>
<polygon class="st0" points="15.9,0 15.9,4 10.7,4 5.5,4 5.5,0 0,0 0,4 0,5.5 0,30.9 0,57.8 10.7,51.5 21.4,57.8 21.4,30.9 
	21.4,5.5 21.4,4 21.4,0 "/>
<polygon class="st1" points="21.4,62.2 10.7,56 0,62.2 0,59.7 10.7,53.5 21.4,59.7 "/>
<polygon class="st2" points="21.4,66.4 10.7,60.2 0,66.4 0,63.9 10.7,57.7 21.4,63.9 "/>
<polygon class="st3" points="21.4,70.7 10.7,64.5 0,70.7 0,68.2 10.7,62 21.4,68.2 "/>
<polygon class="st4" points="21.4,74.9 10.7,68.7 0,74.9 0,72.4 10.7,66.2 21.4,72.4 "/>
<polygon class="st5" points="10.7,72.1 11.9,74.6 14.6,74.9 12.7,76.9 13.1,79.6 10.7,78.3 8.2,79.6 8.7,76.9 6.7,74.9 9.5,74.6 "/>
<polygon class="st5" points="6.7,78.7 7.8,81 10.4,81.3 8.5,83.1 9,85.7 6.7,84.5 4.4,85.7 4.8,83.1 3,81.3 5.5,81 "/>
<polygon class="st5" points="14.7,78.7 15.8,81 18.4,81.3 16.5,83.1 17,85.7 14.7,84.5 12.4,85.7 12.8,83.1 11,81.3 13.6,81 "/>
</svg>
